<svg width="1817" height="201" viewBox="0 0 1817 201" fill="none" xmlns="http://www.w3.org/2000/svg">
<path d="M200.333 0.854004H164.22L67.5229 134.754L113.878 168.241L200.333 48.6164V0.854004Z" fill="url(#paint0_linear_130_6392)"/>
<path d="M113.88 168.241L67.5249 134.752L0.304199 86.1768V156.689L34.0611 181.083L61.4192 200.852H90.3105L113.88 168.241Z" fill="#00DCDC"/>
<path d="M781.192 35.4677H745.219V166.068H781.192V35.4677Z" fill="#2B2B2B"/>
<path d="M699.512 35.4653L635.332 102.225V35.4653H599.371V166.072H624.796L688.982 99.3183V166.072H724.943V35.4653H699.512Z" fill="#2B2B2B"/>
<path d="M889.336 125.424C884.65 130.299 878.68 133.621 872.18 134.971C865.68 136.32 858.941 135.636 852.815 133.006C846.688 130.375 841.448 125.916 837.757 120.19C834.065 114.465 832.088 107.731 832.073 100.837C832.059 93.9441 834.009 87.201 837.677 81.4594C841.346 75.7178 846.567 71.2352 852.683 68.5776C858.799 65.9199 865.535 65.2063 872.04 66.5269C878.546 67.8475 884.529 71.1431 889.235 75.9976L913.661 50.397C887.166 23.065 843.772 23.1515 817.384 50.5949C790.996 78.0382 790.925 123.408 817.384 150.926C843.844 178.443 887.392 178.443 913.857 150.926L889.336 125.424Z" fill="#2B2B2B"/>
<path d="M514.927 29.8183C501.434 29.8159 488.243 33.9748 477.023 41.7693C465.803 49.5637 457.058 60.6434 451.893 73.6072C446.728 86.571 445.376 100.837 448.007 114.6C450.638 128.363 457.135 141.005 466.676 150.928C476.216 160.851 488.372 167.609 501.606 170.347C514.839 173.084 528.556 171.679 541.022 166.309C553.488 160.939 564.142 151.844 571.638 140.176C579.134 128.508 583.134 114.79 583.133 100.758C583.131 81.9452 575.945 63.9033 563.154 50.6C550.364 37.2968 533.016 29.8216 514.927 29.8183ZM514.927 135.659C508.293 135.66 501.807 133.615 496.291 129.783C490.774 125.951 486.474 120.503 483.935 114.13C481.395 107.756 480.73 100.742 482.024 93.9751C483.317 87.2081 486.511 80.9921 491.202 76.1131C495.892 71.2341 501.869 67.9113 508.375 66.5648C514.882 65.2184 521.626 65.9088 527.755 68.5488C533.884 71.1888 539.123 75.6597 542.809 81.3962C546.495 87.1327 548.462 93.8771 548.462 100.776C548.46 110.026 544.927 118.897 538.638 125.438C532.35 131.979 523.821 135.656 514.927 135.659Z" fill="#2B2B2B"/>
<path d="M314.4 72.8304H359.203V166.062H395.176V72.8304H439.978V35.4189H314.4V72.8304Z" fill="#2B2B2B"/>
<path d="M1740.11 91.4625H1806.23V107.073H1740.11V91.4625ZM1741.76 148.58H1816.7V164.558H1723.4V35.998H1814.13V51.9762H1741.76V148.58Z" fill="#2B2B2B"/>
<path d="M1648.16 164.558V51.9762H1604.08V35.998H1710.42V51.9762H1666.34V164.558H1648.16Z" fill="#2B2B2B"/>
<path d="M1482.14 164.558L1540.36 35.998H1558.54L1616.94 164.558H1597.66L1545.68 46.2828H1553.03L1501.06 164.558H1482.14ZM1506.93 132.418L1511.89 117.725H1584.25L1589.58 132.418H1506.93Z" fill="#2B2B2B"/>
<path d="M1365.73 164.558V35.998H1419.9C1433.62 35.998 1445.68 38.6917 1456.08 44.079C1466.61 49.4662 1474.76 56.9962 1480.51 66.6688C1486.39 76.3414 1489.33 87.5445 1489.33 100.278C1489.33 113.012 1486.39 124.215 1480.51 133.887C1474.76 143.56 1466.61 151.09 1456.08 156.477C1445.68 161.864 1433.62 164.558 1419.9 164.558H1365.73ZM1384.09 148.58H1418.8C1429.45 148.58 1438.64 146.56 1446.35 142.519C1454.19 138.479 1460.25 132.847 1464.53 125.623C1468.82 118.276 1470.96 109.828 1470.96 100.278C1470.96 90.6054 1468.82 82.1572 1464.53 74.9334C1460.25 67.7095 1454.19 62.0774 1446.35 58.0369C1438.64 53.9964 1429.45 51.9762 1418.8 51.9762H1384.09V148.58Z" fill="#2B2B2B"/>
<path d="M1322.93 164.558V35.998H1341.29V164.558H1322.93Z" fill="#2B2B2B"/>
<path d="M1220.91 164.558V35.998H1239.28V148.58H1308.88V164.558H1220.91Z" fill="#2B2B2B"/>
<path d="M1073.95 164.558L1132.17 35.998H1150.36L1208.76 164.558H1189.47L1137.5 46.2828H1144.85L1092.87 164.558H1073.95ZM1098.75 132.418L1103.71 117.725H1176.07L1181.39 132.418H1098.75Z" fill="#2B2B2B"/>
<path d="M1027.68 164.558L971.111 35.998H990.946L1042.92 154.641H1031.53L1083.88 35.998H1102.24L1045.86 164.558H1027.68Z" fill="#2B2B2B"/>
<defs>
<linearGradient id="paint0_linear_130_6392" x1="89.6036" y1="150.877" x2="154.244" y2="91.4726" gradientUnits="userSpaceOnUse">
<stop stop-color="#008F8F"/>
<stop offset="1" stop-color="#00DCDC"/>
</linearGradient>
</defs>
</svg>
