<svg width="1819" height="200" viewBox="0 0 1819 200" fill="none" xmlns="http://www.w3.org/2000/svg">
<path d="M200.917 0H164.804L68.1074 133.9L114.463 167.387L200.917 47.7624V0Z" fill="url(#paint0_linear_130_6303)"/>
<path d="M114.465 167.387L68.1094 133.898L0.888672 85.3228V155.835L34.6456 180.229L62.0036 199.998H90.895L114.465 167.387Z" fill="#00DCDC"/>
<path d="M782.531 34.7598H746.559V165.36H782.531V34.7598Z" fill="white"/>
<path d="M700.851 34.7573L636.671 101.517V34.7573H600.71V165.364H626.135L690.321 98.6104V165.364H726.282V34.7573H700.851Z" fill="white"/>
<path d="M890.676 124.716C885.99 129.591 880.02 132.913 873.52 134.263C867.02 135.612 860.281 134.928 854.154 132.298C848.028 129.667 842.788 125.208 839.097 119.482C835.405 113.757 833.427 107.023 833.413 100.129C833.399 93.2361 835.349 86.493 839.017 80.7514C842.685 75.0099 847.907 70.5273 854.023 67.8696C860.139 65.2119 866.874 64.4984 873.38 65.819C879.885 67.1396 885.869 70.4352 890.575 75.2896L915.001 49.689C888.505 22.357 845.112 22.4436 818.724 49.8869C792.336 77.3303 792.265 122.7 818.724 150.218C845.183 177.735 888.731 177.735 915.197 150.218L890.676 124.716Z" fill="white"/>
<path d="M516.267 29.1104C502.774 29.1079 489.583 33.2669 478.363 41.0613C467.143 48.8557 458.398 59.9354 453.233 72.8992C448.068 85.863 446.716 100.129 449.347 113.892C451.978 127.655 458.475 140.297 468.016 150.22C477.556 160.143 489.712 166.901 502.945 169.639C516.179 172.376 529.896 170.971 542.362 165.601C554.828 160.231 565.482 151.136 572.978 139.468C580.473 127.8 584.474 114.083 584.472 100.05C584.471 81.2372 577.285 63.1953 564.494 49.8921C551.704 36.5889 534.356 29.1136 516.267 29.1104ZM516.267 134.951C509.633 134.952 503.147 132.907 497.631 129.075C492.114 125.243 487.814 119.796 485.275 113.422C482.735 107.048 482.07 100.034 483.364 93.2671C484.657 86.5002 487.851 80.2842 492.542 75.4052C497.232 70.5262 503.209 67.2033 509.715 65.8569C516.222 64.5104 522.966 65.2009 529.095 67.8408C535.224 70.4808 540.463 74.9518 544.149 80.6883C547.834 86.4248 549.802 93.1692 549.802 100.069C549.8 109.318 546.267 118.189 539.978 124.73C533.69 131.271 525.161 134.948 516.267 134.951Z" fill="white"/>
<path d="M315.739 72.1224H360.542V165.354H396.515V72.1224H441.317V34.7109H315.739V72.1224Z" fill="white"/>
<path d="M1741.53 91.4625H1807.64V107.073H1741.53V91.4625ZM1743.18 148.58H1818.11V164.558H1724.81V35.998H1815.54V51.9762H1743.18V148.58Z" fill="white"/>
<path d="M1649.58 164.558V51.9762H1605.5V35.998H1711.84V51.9762H1667.76V164.558H1649.58Z" fill="white"/>
<path d="M1483.55 164.558L1541.77 35.998H1559.96L1618.36 164.558H1599.08L1547.1 46.2828H1554.45L1502.47 164.558H1483.55ZM1508.35 132.418L1513.31 117.725H1585.67L1590.99 132.418H1508.35Z" fill="white"/>
<path d="M1367.14 164.558V35.998H1421.32C1435.03 35.998 1447.09 38.6917 1457.5 44.079C1468.03 49.4662 1476.17 56.9962 1481.93 66.6688C1487.8 76.3414 1490.74 87.5445 1490.74 100.278C1490.74 113.012 1487.8 124.215 1481.93 133.887C1476.17 143.56 1468.03 151.09 1457.5 156.477C1447.09 161.864 1435.03 164.558 1421.32 164.558H1367.14ZM1385.51 148.58H1420.22C1430.87 148.58 1440.05 146.56 1447.77 142.519C1455.6 138.479 1461.66 132.847 1465.95 125.623C1470.23 118.276 1472.38 109.828 1472.38 100.278C1472.38 90.6054 1470.23 82.1572 1465.95 74.9334C1461.66 67.7095 1455.6 62.0774 1447.77 58.0369C1440.05 53.9964 1430.87 51.9762 1420.22 51.9762H1385.51V148.58Z" fill="white"/>
<path d="M1324.34 164.558V35.998H1342.71V164.558H1324.34Z" fill="white"/>
<path d="M1222.33 164.558V35.998H1240.69V148.58H1310.3V164.558H1222.33Z" fill="white"/>
<path d="M1075.37 164.558L1133.59 35.998H1151.77L1210.17 164.558H1190.89L1138.92 46.2828H1146.26L1094.29 164.558H1075.37ZM1100.16 132.418L1105.12 117.725H1177.48L1182.81 132.418H1100.16Z" fill="white"/>
<path d="M1029.09 164.558L972.526 35.998H992.361L1044.34 154.641H1032.95L1085.29 35.998H1103.66L1047.27 164.558H1029.09Z" fill="white"/>
<defs>
<linearGradient id="paint0_linear_130_6303" x1="90.1881" y1="150.023" x2="154.828" y2="90.6186" gradientUnits="userSpaceOnUse">
<stop stop-color="#008F8F"/>
<stop offset="1" stop-color="#00DCDC"/>
</linearGradient>
</defs>
</svg>
